<mxfile host="app.diagrams.net" modified="2023-07-01T15:48:06.201Z" agent="Mozilla/5.0 (Windows NT 10.0; Win64; x64) AppleWebKit/537.36 (KHTML, like Gecko) Chrome/114.0.0.0 Safari/537.36" etag="mpeRuCAo1Nsb4VJQFIRR" version="21.5.2" type="github">
  <diagram name="Page-1" id="Oc0tCEL5iWCGT1TQVHpR">
    <mxGraphModel dx="794" dy="462" grid="1" gridSize="10" guides="1" tooltips="1" connect="1" arrows="1" fold="1" page="1" pageScale="1" pageWidth="850" pageHeight="1100" math="0" shadow="0">
      <root>
        <mxCell id="0" />
        <mxCell id="1" parent="0" />
        <mxCell id="MD3R_6orKNe0qqU1uPwT-2" style="edgeStyle=orthogonalEdgeStyle;rounded=0;orthogonalLoop=1;jettySize=auto;html=1;" edge="1" parent="1" source="MD3R_6orKNe0qqU1uPwT-1">
          <mxGeometry relative="1" as="geometry">
            <mxPoint x="380" y="190" as="targetPoint" />
          </mxGeometry>
        </mxCell>
        <mxCell id="MD3R_6orKNe0qqU1uPwT-1" value="Login Using gmail" style="rounded=1;whiteSpace=wrap;html=1;" vertex="1" parent="1">
          <mxGeometry x="150" y="80" width="120" height="60" as="geometry" />
        </mxCell>
        <mxCell id="MD3R_6orKNe0qqU1uPwT-3" value="Home page" style="rounded=1;whiteSpace=wrap;html=1;" vertex="1" parent="1">
          <mxGeometry x="320" y="190" width="150" height="60" as="geometry" />
        </mxCell>
        <mxCell id="MD3R_6orKNe0qqU1uPwT-4" value="pages" style="swimlane;fontStyle=0;childLayout=stackLayout;horizontal=1;startSize=20;fillColor=none;horizontalStack=0;resizeParent=1;resizeParentMax=0;resizeLast=0;collapsible=1;marginBottom=0;html=1;" vertex="1" parent="1">
          <mxGeometry x="500" y="30" width="270" height="340" as="geometry">
            <mxRectangle x="500" y="30" width="70" height="30" as="alternateBounds" />
          </mxGeometry>
        </mxCell>
        <mxCell id="MD3R_6orKNe0qqU1uPwT-5" value="Home page&lt;br&gt;&lt;ul&gt;&lt;li&gt;transaction history&lt;/li&gt;&lt;li&gt;chart with histroy&lt;/li&gt;&lt;/ul&gt;" style="text;strokeColor=none;fillColor=none;align=left;verticalAlign=top;spacingLeft=4;spacingRight=4;overflow=hidden;rotatable=0;points=[[0,0.5],[1,0.5]];portConstraint=eastwest;whiteSpace=wrap;html=1;" vertex="1" parent="MD3R_6orKNe0qqU1uPwT-4">
          <mxGeometry y="20" width="270" height="70" as="geometry" />
        </mxCell>
        <mxCell id="MD3R_6orKNe0qqU1uPwT-6" value="Transaction page&lt;br&gt;&lt;ul&gt;&lt;li&gt;Total members list of debit and credit&lt;/li&gt;&lt;li&gt;table which contains kuli&#39;s, name, value, type of kuli, price to be paid&lt;span style=&quot;white-space: pre;&quot;&gt;&#x9;&lt;/span&gt;&lt;/li&gt;&lt;/ul&gt;" style="text;strokeColor=none;fillColor=none;align=left;verticalAlign=top;spacingLeft=4;spacingRight=4;overflow=hidden;rotatable=0;points=[[0,0.5],[1,0.5]];portConstraint=eastwest;whiteSpace=wrap;html=1;" vertex="1" parent="MD3R_6orKNe0qqU1uPwT-4">
          <mxGeometry y="90" width="270" height="86" as="geometry" />
        </mxCell>
        <mxCell id="MD3R_6orKNe0qqU1uPwT-7" value="Persons data&lt;br&gt;&lt;ul&gt;&lt;li&gt;kuli number&lt;/li&gt;&lt;li&gt;kuli type&lt;/li&gt;&lt;li&gt;kuli price automatically populated by type&lt;/li&gt;&lt;li&gt;kuli&#39;s date&lt;/li&gt;&lt;li&gt;advanced amount paid.&lt;/li&gt;&lt;li&gt;is fully paid, By default its not full paid.&lt;/li&gt;&lt;/ul&gt;" style="text;strokeColor=none;fillColor=none;align=left;verticalAlign=top;spacingLeft=4;spacingRight=4;overflow=hidden;rotatable=0;points=[[0,0.5],[1,0.5]];portConstraint=eastwest;whiteSpace=wrap;html=1;" vertex="1" parent="MD3R_6orKNe0qqU1uPwT-4">
          <mxGeometry y="176" width="270" height="130" as="geometry" />
        </mxCell>
        <mxCell id="MD3R_6orKNe0qqU1uPwT-9" value="Profile data" style="text;align=left;verticalAlign=top;spacingLeft=4;spacingRight=4;overflow=hidden;rotatable=0;points=[[0,0.5],[1,0.5]];portConstraint=eastwest;whiteSpace=wrap;html=1;" vertex="1" parent="MD3R_6orKNe0qqU1uPwT-4">
          <mxGeometry y="306" width="270" height="34" as="geometry" />
        </mxCell>
      </root>
    </mxGraphModel>
  </diagram>
</mxfile>
